<?xml version="1.0" encoding="utf-8"?>
<!-- Generator: Adobe Illustrator 22.0.1, SVG Export Plug-In . SVG Version: 6.00 Build 0)  -->
<svg version="1.1" id="New_Tower_SVG" xmlns="http://www.w3.org/2000/svg" xmlns:xlink="http://www.w3.org/1999/xlink" x="0px"
	 y="0px" viewBox="0 0 529.2 641.3" style="enable-background:new 0 0 529.2 641.3;" xml:space="preserve">
<style type="text/css">
	.st0{fill:#6D4C41;}
	.st1{fill:#795548;}
	.st2{fill:#8D6E63;}
	.st3{fill:#A1887F;}
	.st4{fill:url(#SVGID_1_);}
	.st5{fill:#FFFFFF;}
	.st6{opacity:0.25;}
	.st7{fill:none;stroke:#263238;stroke-width:10;stroke-miterlimit:10;}
</style>
<g id="Brown_Colour">
	<path id="Blue_1_" class="st0" d="M525,630.5c1.3-0.1-51-218-51-321c0,0,2.5-8.4,8-10c5-1.4,16.6,1.3,18-2c3-7,19.4-44.3,24-65
		c0.9-3.9-32.9,1.1-32-3c9.6-43.7,21.2-98,21-99c-1-4-10.8-3-20-3c-3,0,1-19.3,1-34c0-4-24,2-24-3c0-25.2-1.7-40-3-42
		c-5.2-8.4-45-4-53-2c-4.9,1.2,1,43.9-4,44c-5.2,0.1-21,0-24,0s8,37,2,37c-2,0-18,0-23,0c-8.7,0,29.5,99,22,100c-15,2-33-1-32,2
		c6.7,20,21.8,67.4,24,68c15,4,14-1,26,7c6,4,0,158-30,210l-20,120.8l27,1.2l21-95l17-115l5-96v-21h30l3,4v48l15,121l23,114l10,38
		L525,630.5z"/>
	<polygon class="st1" points="364,127.5 388,227.5 491,227.5 512,130.5 	"/>
	<polygon class="st2" points="388,127.5 383,90.5 494,93.5 492,127.5 	"/>
	<polygon class="st3" points="410,90.5 411,46.5 463.4,46.5 470,90.5 	"/>
</g>
<g id="Tail_Colour">
	<linearGradient id="SVGID_1_" gradientUnits="userSpaceOnUse" x1="3.4658" y1="417.7863" x2="413.2153" y2="468.0972">
		<stop  offset="0" style="stop-color:#2962FF"/>
		<stop  offset="0.8909" style="stop-color:#2979FF"/>
		<stop  offset="0.9805" style="stop-color:#795548"/>
	</linearGradient>
	<path class="st4" d="M182.4,258.6c-13.6,0-38.1,1.6-67,11.6c-15.7,5.4-35.8,12.5-56.9,29.9c-16.2,13.4-25.8,27.1-29.9,33.4
		c-5.1,7.9-15.2,23.5-20,46.4c-4,19.3-2.4,34.3-0.9,48.6c1.3,11.6,3,26.7,10.4,45.1c7.7,19.1,17.2,31.1,23.4,39.1
		c6.6,8.4,12.2,13.8,19.5,18.2c7.9,4.8,10.5,5.8,11.6,5.8c0.3,0,0.5-0.1,0.6-0.2c2.1-1.6-0.1-7.1-1.7-14.3
		c-2.4-10.5-1.9-18.6-0.9-34.7c0.7-11.6,2.2-18.1,4.8-29.5c1.4-6.1,2.7-10.5,6.5-14.3c5.3-5.2,12.2-5.9,13.9-6.1
		c0.7-0.1,1.3-0.1,1.9-0.1c8,0,14.2,4.3,20.6,8.8c3.7,2.6,12.4,8.8,19.1,20.4c1.2,2,4.8,8.7,8.2,27.8c3.7,20.6,1.1,22.4,4.3,38.6
		c2.1,10.8,4.5,22.1,12.2,34.3c6.7,10.7,14.4,16.9,22.6,23.4c6.2,5,17.8,13.4,41.2,23.9c27.6,12.3,41.4,18.3,57.3,19.5
		c0.7,0.1,38.2,2.4,67,2.4c16.6,0,30.4-0.8,32.7-3.3c16.6-18,30.4-156.1,31-233c0.2-28.8-3.4-54.1-6.6-54.1c-0.1,0-0.2,0-0.4,0.1
		c-2.3,1.3-2.5,43.4-8,84c-4.6,34.1-14.1,66.9-19,77c-7,14.6-24.5,16.4-25.1,16.6c-4.2,0.9-7.7,1.2-10.5,1.2c-4.2,0-7-0.6-8.1-0.7
		c-7.2-0.8-15.6-1.8-23.4-7.8c-6.9-5.3-10-11.9-11.7-15.6c-3-6.5-3.6-11.8-4.3-19.5c-1.4-13.5-0.2-24.2,0.4-28.6
		c0.6-4.2,1.2-7.5,7.4-29.5c6.3-22.6,7.3-24.8,9.5-34.7c1-4.6-0.1,0.1,4.3-30.4c0.3-1.8,1-6.9-0.4-13c-1.1-4.6-3.9-12.2-7.4-12.2
		c0,0,0,0,0,0c-0.5,0-2.2,0.1-5.2,5.6c-5.3,9.8-5.5,16.8-7.4,16.9c0,0,0,0-0.1,0c-1.9,0-3.9-7-4.3-8.2c0,0-5.1-17.7-12.2-36
		c-6.1-15.7-17.2-25.2-21.7-29.1c-13.6-11.6-27.7-15.6-38.6-18.7c-4.9-1.4-14.7-3.8-29.1-4.8C190.3,258.8,187,258.6,182.4,258.6
		L182.4,258.6z"/>
</g>
<g id="Tower_Outline">
	<path id="White" class="st5" d="M94.8,437.7c-0.4,0-0.8,0.1-0.8,0.1c0,0,0,0,0,0c-2.5,0.3-8.4,1.4-13.1,6
		c-3.9,3.8-5.1,8.2-6.5,14.3c-2.6,11.4-4.1,17.9-4.8,29.5c-1,16.1-1.5,24.2,0.9,34.7c1.6,7.2,3.9,12.8,1.7,14.3
		c-0.7,0.5-2.1,0.4-12.2-5.6c-7.3-4.4-12.9-9.8-19.5-18.2c-6.3-8-15.8-20-23.4-39.1c-7.4-18.4-9.2-33.6-10.4-45.1
		c-1.5-14.3-3.2-29.3,0.9-48.6c4.8-22.9,14.8-38.6,20-46.4c4.1-6.3,13.7-20,29.9-33.4c21-17.4,41.1-24.5,56.9-29.9
		c38.8-13.3,69.6-11.8,76.8-11.3c14.4,0.9,24.2,3.4,29.1,4.8c11,3.1,25.1,7.1,38.6,18.7c4.5,3.9,15.6,13.4,21.7,29.1
		c7.1,18.4,12.2,36,12.2,36c0.4,1.3,2.4,8.4,4.3,8.2c1.9-0.2,2.1-7.1,7.4-16.9c3-5.6,4.7-5.6,5.2-5.6c3.5,0,6.3,7.6,7.4,12.2
		c1.4,6.1,0.7,11.2,0.4,13c-3.5,24.1-3.5,26.2-3.9,28.3c-0.3,1.8-0.3,1.9-0.4,2.1c-1.8,1.5-8.8-8-13.5-6.5c-1.9,0.6-2,2.5-5.5,10.7
		c-3,7-4.5,10.5-5.8,10.6c-3.1,0.3-4.5-9-12.8-20.5c-2.8-3.9-8.3-11.4-11.5-10.3c-2.4,0.8-1.7,5.7-3,16.1
		c-1.2,9.6-3.3,16.1-7.4,29.1c-3.8,11.9-5.1,13-6.4,13.2c-4.3,0.8-7.1-8.4-18.8-18.8c-2.2-1.9-13.5-12-16.9-9.5
		c-2.4,1.7,1.2,8.1,5.6,27.8c0.8,3.6,1.6,11.7,3.2,28.1c0.5,4.8,0.8,8.6-1.6,11.9c-4,5.3-12.3,5-13.8,4.9c-6.5-0.4-11.3-4-14.8-6.7
		c-6.7-5-7.5-8.7-10-8.2c-4.7,0.9-6.1,15.6-6.5,19.5c-0.9,9.3,0.4,13.9-0.9,14.3c-2.6,0.9-6.9-19.4-23.5-36.5
		c-3.1-3.2-14.4-14.5-29.2-18.3C109.2,436.7,94.9,437.7,94.8,437.7z"/>
	<path class="st6" d="M282.3,634.4c-15.6-1.1-29.5-7.1-57.3-19.5c-23.4-10.4-35-18.9-41.2-23.9c-8.2-6.5-15.8-12.7-22.6-23.4
		c-7.7-12.2-10-23.5-12.2-34.3c-3.2-16.3-0.6-18-4.3-38.6c-3.4-19-7.1-25.7-8.2-27.8c-6.7-11.6-15.4-17.8-19.1-20.4
		c-6.9-4.8-13.6-9.4-22.6-8.7c-1.7,0.1-8.6,0.8-13.9,6.1c-3.9,3.8-5.1,8.2-6.5,14.3c-2.6,11.4-4.1,17.9-4.8,29.5
		c-0.9,14.9-1.6,23.5,0.9,34.7c1.9,8.6,6.4,14.5,5.2,15.2c-1,0.6-4.4-3.1-5.3-4.1c-4.5-4.9-37.5-45.4-22.9-94.8
		c3.3-11.1,9.2-31,28.2-41.7c14.5-8.1,28.9-6.6,33-6.1c18.6,2.5,30.1,14.3,37.3,21.7c3.1,3.2,13.5,14.3,23,38.6
		c14.4,36.9,5.9,51,22,83.9c4.1,8.3,8.5,17.2,17.5,26.5c8.2,8.5,18.5,15.5,47.7,26.5c26.8,10.1,40.8,16.6,61.6,18.8
		c25.4,2.7,138.1,1.7,201.1,1.7c3.5,0,7.2,21.6,5,22C502,634.5,297.2,635.5,282.3,634.4z"/>
	<g id="Layer_5">
		<path id="Tail_Stroke" class="st7" d="M282.3,634.4c-9.3-0.8-31.1-5.3-59.3-17.8c-23.4-10.4-33.8-19-40-24
			c-8.2-6.5-15.1-14.3-21.8-25c-7.7-12.2-10-23.5-12.2-34.3c-3.2-16.3-0.6-18-4.3-38.6c-3.4-19-7.1-25.7-8.2-27.8
			c-6.7-11.6-15.4-17.8-19.1-20.4c-6.9-4.8-13.6-9.4-22.6-8.7c-1.7,0.1-8.6,0.8-13.9,6.1c-3.9,3.8-5.1,8.2-6.5,14.3
			c-2.6,11.4-4.1,17.9-4.8,29.5c-1,16.1-1.5,24.2,0.9,34.7c1.6,7.2,3.9,12.8,1.7,14.3c-0.7,0.5-2.1,0.4-12.2-5.6
			c-7.3-4.4-12.9-9.8-19.5-18.2c-6.3-8-15.8-20-23.4-39.1c-7.4-18.4-9.2-33.6-10.4-45.1c-1.5-14.3-3.2-29.3,0.9-48.6
			c4.8-22.9,14.8-38.6,20-46.4c4.1-6.3,13.7-20,29.9-33.4c21-17.4,41.1-24.5,56.9-29.9c38.8-13.3,69.6-11.8,76.8-11.3
			c14.4,0.9,24.2,3.4,29.1,4.8c11,3.1,25.1,7.1,38.6,18.7c4.5,3.9,15.6,13.4,21.7,29.1c7.1,18.4,12.2,36,12.2,36
			c0.4,1.3,2.4,8.4,4.3,8.2c1.9-0.2,2.1-7.1,7.4-16.9c3-5.6,4.7-5.6,5.2-5.6c3.5,0,6.3,7.6,7.4,12.2c1.4,6.1,0.7,11.2,0.4,13
			c-4.4,30.5-3.3,25.8-4.3,30.4c-2.3,9.9-3.2,12.1-9.5,34.7c-6.2,22-6.8,25.4-7.4,29.5c-0.6,4.5-1.8,15.2-0.4,28.6
			c0.8,7.7,1.4,13,4.3,19.5c1.7,3.7,4.8,10.3,11.7,15.6c7.9,6,16.2,7,23.4,7.8c4.5,0.5,11.1,1.3,18.7-0.4c0,0,18.9-2.6,25.1-15.6
			c15.2-32,27-104.5,27-192c0-12-1.9-19-28-19c-2,0-23-67-24-68c0,0,0,0,0,0c0,0.1,0,0,169.9,0c0.9,0,0.1,0-25.3,68.1
			c-0.2,0.5-27.7-5.1-25.7,16.9c20.6,226.5,51.8,310.7,51,316C523,637.5,322.3,638,282.3,634.4z"/>
		<path d="M419.6,385.2"/>
		<path class="st7" d="M363.7,130.6l22.5,96.9l103.8,0.1l22.3-96.9c0.4-1.6-0.8-3.1-2.4-3.1H366.2
			C364.6,127.5,363.4,129,363.7,130.6z"/>
		<path class="st7" d="M383.5,95.2l3.5,32.4h105.3l0.6-32c0.1-2.8-2.1-5-4.9-5.1l-100.4,0C385.1,90.5,383.2,92.7,383.5,95.2z"/>
		<path class="st7" d="M409,54v29.4c0,2.9,2.1,6.1,5,6.1l48.4,0c3,0.1,5.7-2,5.6-5v-30c-0.2-4.8-5.2-10-10-10h-39.5
			C413.2,44.5,409,48.8,409,54z"/>
		<line class="st7" x1="516" y1="250.5" x2="362" y2="250.5"/>
		<line class="st7" x1="369" y1="148.5" x2="507.8" y2="148.5"/>
		<line class="st7" x1="491" y1="107.5" x2="388" y2="107.5"/>
		<line class="st7" x1="465" y1="66.5" x2="411" y2="66.5"/>
		<line class="st7" x1="424" y1="47.5" x2="424" y2="63.5"/>
		<line class="st7" x1="439" y1="47.5" x2="439" y2="63.5"/>
		<line class="st7" x1="454" y1="46.5" x2="454" y2="62.5"/>
		<path class="st7" d="M434,44.5l4.2-38.8c0.1-0.9,1.5-0.9,1.6,0l4.2,38.8H434z"/>
	</g>
	<g id="Layer_4">
		<path class="st7" d="M384.7,635.2l107.6-53.6l12.6,48.6c0.4,1.7-1.3,3.2-2.9,2.4l-107.6-51l-11.7,52
			C382.4,634.7,383.6,635.7,384.7,635.2z"/>
		<polygon class="st7" points="394,581.5 482.4,536.9 492,581.5 402.7,536.9 		"/>
		<polygon class="st7" points="403,536.5 475.2,498 482,536.5 409,498 		"/>
		<polygon class="st7" points="409,497.5 469.4,460.1 475,497.5 414.1,460.1 		"/>
		<polygon class="st7" points="414,460.5 465.2,427 469,460.5 417.9,427 		"/>
		<polygon class="st7" points="418,426.5 462,394 465,426.5 420.6,394 		"/>
		<polygon class="st7" points="421,394.5 459.6,361.8 462.3,397.7 423.2,361.8 		"/>
		<polygon class="st7" points="423,361.5 458.1,330.8 460,361.5 424.8,330.8 		"/>
		<path class="st7" d="M425,330.5l27.2-16.6c2-1.2,4.5,0.1,4.7,2.4l1.1,14.2l-26-17.6c-2.3-1.5-5.3-0.1-5.6,2.6L425,330.5z"/>
		<path class="st7" d="M430.7,309.5h22c2.5,0,4.6,1.8,5,4.3c1.2,55.7,6.3,119.3,18.4,188.7c8.3,47.8,18.7,91.7,30,131.2
			c-41.2,0.8-82.5,1.6-123.7,2.4c9.7-40.6,18.6-84.6,25.8-131.6c10.5-68.8,15.6-132.7,17.4-190.3c0-0.2,0-2.3,1.6-3.7
			C428.6,309.2,430.4,309.5,430.7,309.5z"/>
	</g>
</g>
</svg>
